<svg width="974" height="135" viewBox="0 0 974 135" fill="none" xmlns="http://www.w3.org/2000/svg">
<path d="M189.483 101.676L216.806 132.171H193.64C193.64 132.171 175.025 112.095 171.674 108.347V132.171H156.451C155.745 132.2 155.041 132.083 154.383 131.827C153.725 131.571 153.127 131.183 152.628 130.685C152.128 130.188 151.737 129.593 151.481 128.938C151.224 128.283 151.106 127.582 151.136 126.879V80.2205C151.136 76.8436 148.364 73.9198 146.523 72.3755C145.944 71.8607 145.716 71.2018 146.523 71.2018H171.674V95.0869C175.108 91.3188 193.64 71.2018 193.64 71.2018H216.806L189.483 101.676Z" fill="white"/>
<path d="M398.32 101.674C398.32 122.862 413.378 133.96 428.291 133.96C437.197 133.984 445.922 131.454 453.421 126.671L453.938 126.321V98.8323H434.227V110.095H441.652V117.714C438.14 119.949 434.052 121.122 429.883 121.091C420.865 121.091 411.765 114.502 411.765 101.9C411.765 90.1224 418.528 82.195 428.642 82.195C435.474 82.4146 442.091 84.627 447.671 88.5576L448.643 89.2576L454.062 76.9033L453.152 76.3473C452.656 76.0796 440.99 69.6348 429.408 69.6348C413.978 69.6348 398.382 80.6713 398.382 101.797" fill="white"/>
<path d="M253.683 120.025V71.2255H235.233C234.468 71.2255 234.654 71.8638 235.233 72.3785C237.053 73.9228 239.866 76.8467 239.866 80.2236V128.117C239.8 128.674 239.861 129.239 240.045 129.768C240.23 130.298 240.532 130.779 240.931 131.176C241.329 131.572 241.812 131.874 242.344 132.057C242.877 132.241 243.444 132.302 244.003 132.235H282.516V120.025H253.683Z" fill="white"/>
<path d="M303.699 120.025V108.041H327.03V94.7193H303.699V83.4357H329.926V71.2255H285.312C284.526 71.2255 284.733 71.8638 285.312 72.3785C287.132 73.9228 289.924 76.8467 289.924 80.2236V128.117C289.924 131.041 291.103 132.235 294.061 132.235H331.684V120.025H303.699Z" fill="white"/>
<path d="M501.143 71.2255V105.591C501.143 115.022 499.426 120.931 489.25 120.931C479.073 120.931 476.053 116.01 476.053 105.9V71.2255H457.749C456.963 71.2255 457.149 71.8638 457.749 72.3785C459.548 73.9228 462.34 76.8467 462.34 80.2236V107.856C462.34 125.296 470.138 134.109 489.229 134.109C508.32 134.109 514.897 126.038 514.897 107.856V71.2255H501.143Z" fill="white"/>
<path d="M360.506 106.95C361.354 104.273 367.208 86.0507 367.642 84.6917H369.711C370.166 86.0507 376.019 104.273 376.908 106.95H360.506ZM378.212 71.2255H354.426C353.66 71.2255 353.867 71.8638 354.426 72.3785C355.384 73.4986 356.012 74.8617 356.238 76.3159C356.465 77.7701 356.281 79.2583 355.708 80.6148L337.672 132.091H352.357C352.357 132.091 355.956 120.931 356.39 119.552H380.859C381.314 120.931 384.892 132.091 384.892 132.091H399.619L378.212 71.2255Z" fill="white"/>
<path d="M538.91 120.025V108.041H562.241V94.7193H538.91V83.4357H565.116V71.2255H520.46C519.674 71.2255 519.881 71.8638 520.46 72.3785C522.28 73.9228 525.073 76.8467 525.073 80.2236V128.117C525.073 131.041 526.231 132.235 529.209 132.235H566.833V120.025H538.91Z" fill="white"/>
<path d="M599.801 77.2134V101.243H630.226V105.072H599.801V130.09H595.664V73.3629H633.784V77.2134H599.801Z" fill="white"/>
<path fill-rule="evenodd" clip-rule="evenodd" d="M593.508 71.2128H635.95V79.3666H601.967V99.0925H632.393V107.226H601.967V132.243H593.508V71.2128Z" fill="white"/>
<path d="M676.58 111.967H645.741L637.467 130.066H632.938L659.164 73.3392H663.301L689.445 130.066H684.915L676.58 111.967ZM674.904 108.22L661.15 78.2604L647.416 108.22H674.904Z" fill="white"/>
<path fill-rule="evenodd" clip-rule="evenodd" d="M657.787 71.1891H664.694L692.822 132.22H683.535L675.2 114.121H647.139L638.865 132.22H629.57L657.787 71.1891ZM661.158 83.4415L650.785 106.07H671.547L661.158 83.4415Z" fill="white"/>
<path d="M748.474 73.3629V130.09H744.482L705.184 80.5491V130.09H701.047V73.3629H704.811L744.296 123.089V73.3629H748.474Z" fill="white"/>
<path fill-rule="evenodd" clip-rule="evenodd" d="M698.891 71.2128H705.863L742.14 116.899V71.2128H750.641V132.243H743.44L707.35 86.7473V132.243H698.891V71.2128Z" fill="white"/>
<path d="M806.539 77.2134H784.78V130.09H780.643V77.2134H758.719V73.3629H806.539V77.2134Z" fill="white"/>
<path fill-rule="evenodd" clip-rule="evenodd" d="M756.562 71.2128H808.706V79.3666H786.947V132.243H778.487V79.3666H756.562V71.2128Z" fill="white"/>
<path d="M847.617 111.967H816.881L808.608 130.066H804.078L830.325 73.3392H834.462L860.606 130.066H856.076L847.617 111.967ZM845.942 108.22L832.208 78.2604L818.453 108.22H845.942Z" fill="white"/>
<path fill-rule="evenodd" clip-rule="evenodd" d="M828.934 71.1891H835.841L863.968 132.22H854.691L846.231 114.121H818.265L809.991 132.22H800.695L828.934 71.1891ZM821.81 106.07H842.572L832.199 83.4415L821.81 106.07Z" fill="white"/>
<path d="M911.899 88.1263H907.762C906.252 80.6313 900.647 76.0396 890.347 76.0396C880.956 76.0396 874.751 80.4666 874.751 87.7145C874.751 93.1504 878.764 96.6508 886.231 98.0098L896.696 100.069C906.521 101.819 912.043 106.658 912.043 114.482C912.043 124.654 903.667 131.161 891.174 131.161C877.605 131.161 869.291 124.489 867.719 112.217H871.98C873.489 121.977 879.943 127.413 891.339 127.413C901.226 127.413 907.762 122.574 907.762 114.894C907.762 109.479 903.832 105.546 895.952 104.125L884.638 102.066C875.165 100.234 870.304 95.3124 870.304 87.9616C870.304 78.6134 878.267 72.5392 890.078 72.5392C902.177 72.3745 910.389 77.9545 911.899 88.1263Z" fill="white"/>
<path fill-rule="evenodd" clip-rule="evenodd" d="M873.213 83.6283C872.724 84.9477 872.467 86.3955 872.467 87.9613C872.467 91.1218 873.492 93.6225 875.445 95.5582C877.265 97.3619 880.027 98.8079 883.884 99.7054C880.795 98.9329 878.193 97.724 876.251 95.9944C873.843 93.8502 872.591 91.0268 872.591 87.7142C872.591 86.2617 872.804 84.8948 873.213 83.6283ZM904.229 104.86C904.984 105.337 905.673 105.864 906.292 106.442C908.361 108.374 909.548 110.783 909.848 113.492C909.64 110.617 908.511 108.351 906.586 106.576C905.913 105.955 905.128 105.381 904.229 104.86ZM906.21 74.7001C910.476 77.707 913.203 82.182 914.038 87.8115L914.404 90.2777H905.992L905.644 88.5491C904.979 85.2452 903.453 82.7312 901.08 81.0118C898.677 79.2704 895.19 78.191 890.348 78.191C885.963 78.191 882.563 79.228 880.317 80.8869C878.136 82.4973 876.914 84.7775 876.914 87.7142C876.914 89.8376 877.668 91.4823 879.133 92.787C880.666 94.152 883.108 95.2536 886.621 95.8929L886.636 95.8956L897.098 97.954C902.241 98.8727 906.512 100.64 909.525 103.419C912.602 106.258 914.206 110.008 914.206 114.482C914.206 120.214 911.819 125.007 907.641 128.319C903.51 131.594 897.777 133.312 891.175 133.312C884.047 133.312 878.048 131.558 873.589 127.963C869.106 124.349 866.419 119.066 865.576 112.489L865.266 110.065H873.835L874.117 111.89C874.809 116.362 876.59 119.626 879.307 121.797C882.042 123.983 885.976 125.261 891.341 125.261C895.957 125.261 899.559 124.129 901.952 122.32C904.288 120.554 905.602 118.057 905.602 114.894C905.602 112.758 904.85 110.997 903.334 109.581C901.768 108.117 899.252 106.906 895.568 106.242L884.239 104.18L884.227 104.178C879.227 103.211 875.195 101.383 872.395 98.6077C869.549 95.7869 868.144 92.1516 868.144 87.9613C868.144 82.6154 870.449 78.1364 874.436 75.0467C878.371 71.9967 883.815 70.3897 890.064 70.3872C896.43 70.3029 901.989 71.7251 906.21 74.7001Z" fill="white"/>
<path d="M969.457 73.3629L945.671 109.335V130.09H941.389V109.335L917.5 73.3629H922.361L943.561 105.402L964.844 73.3629H969.457Z" fill="white"/>
<path fill-rule="evenodd" clip-rule="evenodd" d="M913.484 71.2128H923.529L943.569 101.497L963.687 71.2128H973.472L947.837 109.981V132.243H939.232V109.983L913.484 71.2128Z" fill="white"/>
<path d="M63.6904 1.15313L63.2858 25.47C63.3006 25.5095 63.3006 25.553 63.2858 25.5925C56.0209 31.0021 35.8973 46.6006 20.1889 81.9642C20.1761 81.9949 20.1568 82.0225 20.1321 82.045C20.1075 82.0675 20.0783 82.0843 20.0464 82.0943C20.0146 82.1043 19.9809 82.1073 19.9477 82.1029C19.9146 82.0986 19.8828 82.0871 19.8547 82.0692C17.2161 80.2135 1.82434 69.8145 0.346729 68.5015C-0.163397 68.0289 -0.110632 67.7137 0.505038 67.136C12.6601 55.7391 31.57 45.5327 32.5903 45.0075C33.2059 43.782 47.1376 15.5437 62.16 0.627937C63.0395 -0.387454 63.6904 -0.142367 63.6904 1.15313Z" fill="#E61219"/>
<path d="M61.9352 38.5985C81.2892 24.8125 104.596 17.6105 128.392 18.0631C128.515 18.0546 128.637 18.089 128.736 18.1602C128.836 18.2315 128.908 18.3351 128.939 18.4533C128.97 18.5716 128.959 18.6969 128.908 18.8079C128.856 18.9188 128.767 19.0083 128.656 19.0609C123.537 22.2122 88.796 43.1502 72.0322 67.5721C72.0105 67.6156 71.9992 67.6635 71.9992 67.7121C71.9992 67.7607 72.0105 67.8087 72.0322 67.8522C80.7043 93.7096 104.645 121.913 112.79 130.229C113.651 131.104 114.461 131.874 115.182 132.592C115.309 132.714 115.396 132.871 115.431 133.043C115.465 133.215 115.446 133.394 115.375 133.555C115.281 133.72 115.136 133.85 114.962 133.926C114.788 134.001 114.593 134.019 114.408 133.975C113.124 133.748 111.47 133.257 110.133 132.872C85.4473 125.589 62.4747 113.464 42.568 97.211C42.5565 97.1993 42.5429 97.1901 42.5278 97.1838C42.5127 97.1775 42.4964 97.1742 42.4801 97.1742C42.4637 97.1742 42.4474 97.1775 42.4323 97.1838C42.4172 97.1901 42.4036 97.1993 42.3921 97.211C31.1518 106.227 21.0196 122.631 18.68 126.972C18.6322 127.053 18.5607 127.116 18.4753 127.155C18.3899 127.193 18.2947 127.205 18.2025 127.187C18.1104 127.17 18.0258 127.125 17.9602 127.059C17.8945 126.992 17.8511 126.907 17.8357 126.815C16.2551 111.843 18.7587 96.7236 25.083 83.048C24.9774 83.6608 22.9897 94.8126 23.5702 99.9596C23.581 99.9905 23.6012 100.017 23.628 100.036C23.6548 100.055 23.6868 100.065 23.7197 100.065C23.7526 100.065 23.7847 100.055 23.8115 100.036C23.8382 100.017 23.8584 99.9905 23.8692 99.9596C26.8244 95.8105 35.7428 85.429 42.6208 80.3695C42.6422 80.3572 42.6664 80.3507 42.6911 80.3507C42.7158 80.3507 42.7401 80.3572 42.7615 80.3695C53.263 89.8704 64.86 98.0977 77.3094 104.879C77.4501 104.966 77.6084 104.774 77.5204 104.634C59.5781 80.422 56.0072 64.6135 56.0072 64.6135C56.0072 64.6135 56.0072 64.4909 56.0072 64.4384C66.7092 50.1245 79.8774 37.8133 94.8999 28.0769C94.9286 28.0558 94.9502 28.0266 94.9618 27.9931C94.9734 27.9596 94.9745 27.9234 94.9649 27.8892C94.9554 27.8551 94.9357 27.8246 94.9083 27.8018C94.881 27.7791 94.8475 27.7651 94.812 27.7618C83.2104 29.0379 72.0086 32.7302 61.9352 38.5985Z" fill="white"/>
<path d="M146 19.4922C146.898 15.3125 148.656 12.0117 151.273 9.58984C153.891 7.16797 157.289 5.95703 161.469 5.95703C165.922 5.95703 169.574 7.24609 172.426 9.82422C175.277 12.4023 176.703 15.8398 176.703 20.1367C176.703 22.9492 176.059 25.4688 174.77 27.6953C173.52 29.9219 171.723 32.168 169.379 34.4336C168.988 34.8242 167.914 35.8594 166.156 37.5391C164.438 39.1797 162.953 40.7422 161.703 42.2266C160.453 43.7109 159.359 45.3125 158.422 47.0312H176.469V55H146.586C146.586 52.8906 146.898 50.8203 147.523 48.7891C148.148 46.7578 148.852 45 149.633 43.5156C150.453 41.9922 151.586 40.3516 153.031 38.5938C154.516 36.8359 155.746 35.4492 156.723 34.4336C157.738 33.418 159.086 32.1289 160.766 30.5664C161.234 30.1367 161.586 29.8047 161.82 29.5703C165.023 26.5234 166.625 23.3008 166.625 19.9023C166.625 18.0664 166.137 16.6211 165.16 15.5664C164.223 14.5117 162.973 13.9844 161.41 13.9844C157.816 13.9844 155.414 16.6406 154.203 21.9531L146 19.4922Z" fill="white"/>
<path d="M191.938 31.0352C191.938 42.4414 194.008 48.1445 198.148 48.1445C202.211 48.1445 204.242 42.4414 204.242 31.0352C204.242 19.668 202.191 13.9844 198.09 13.9844C193.988 13.9844 191.938 19.668 191.938 31.0352ZM181.918 31.0352C181.918 27.0898 182.27 23.5938 182.973 20.5469C183.676 17.5 184.555 15.0781 185.609 13.2812C186.703 11.4844 187.992 10.0195 189.477 8.88672C191 7.75391 192.445 6.99219 193.812 6.60156C195.18 6.17188 196.605 5.95703 198.09 5.95703C203.363 5.95703 207.387 8.20312 210.16 12.6953C212.973 17.1875 214.379 23.3008 214.379 31.0352C214.379 38.8477 212.953 44.9805 210.102 49.4336C207.289 53.8867 203.305 56.1133 198.148 56.1133C196.781 56.1133 195.434 55.9375 194.105 55.5859C192.777 55.2344 191.352 54.5117 189.828 53.418C188.305 52.2852 186.977 50.8398 185.844 49.082C184.711 47.3242 183.773 44.9023 183.031 41.8164C182.289 38.6914 181.918 35.0977 181.918 31.0352Z" fill="white"/>
<path d="M218.656 19.4922C219.555 15.3125 221.312 12.0117 223.93 9.58984C226.547 7.16797 229.945 5.95703 234.125 5.95703C238.578 5.95703 242.23 7.24609 245.082 9.82422C247.934 12.4023 249.359 15.8398 249.359 20.1367C249.359 22.9492 248.715 25.4688 247.426 27.6953C246.176 29.9219 244.379 32.168 242.035 34.4336C241.645 34.8242 240.57 35.8594 238.812 37.5391C237.094 39.1797 235.609 40.7422 234.359 42.2266C233.109 43.7109 232.016 45.3125 231.078 47.0312H249.125V55H219.242C219.242 52.8906 219.555 50.8203 220.18 48.7891C220.805 46.7578 221.508 45 222.289 43.5156C223.109 41.9922 224.242 40.3516 225.688 38.5938C227.172 36.8359 228.402 35.4492 229.379 34.4336C230.395 33.418 231.742 32.1289 233.422 30.5664C233.891 30.1367 234.242 29.8047 234.477 29.5703C237.68 26.5234 239.281 23.3008 239.281 19.9023C239.281 18.0664 238.793 16.6211 237.816 15.5664C236.879 14.5117 235.629 13.9844 234.066 13.9844C230.473 13.9844 228.07 16.6406 226.859 21.9531L218.656 19.4922Z" fill="white"/>
<path d="M253.812 37.6562L274.32 6.71875H282.582V37.5391H287.855V45.5078H282.582V55.293H272.914V45.5078H253.812V37.6562ZM262.895 37.5391H272.914V26.9922C272.914 25.0391 272.992 23.1836 273.148 21.4258H272.855C271.84 23.3008 270.941 24.8633 270.16 26.1133L262.895 37.5391Z" fill="white"/>
</svg>
